<svg xmlns="http://www.w3.org/2000/svg" xmlns:xlink="http://www.w3.org/1999/xlink" xmlns:lucid="lucid" width="523.72" height="445.49"><g transform="translate(-191.47309635201873 -570.4237904366879)" lucid:page-tab-id="7bb7Ulvvysp-"><g filter="url(#a)"><path d="M376.02 753.77a6 6 0 0 1 6-6H709.2a6 6 0 0 1 6 6v256.14a6 6 0 0 1-6 6H382a6 6 0 0 1-6-6z" fill="none"/><use xlink:href="#b" transform="matrix(1,0,0,1,381.0169036479812,752.7745428966454) translate(0 207.10416666666669)"/></g><path d="M222.86 922.6a3.2 3.2 0 0 0 2.67 5h171.34a3.2 3.2 0 0 0 2.67-5l-85-127.5a4 4 0 0 0-6.67 0z" stroke="#fff" stroke-width="2" fill="#0b6cb4" transform="matrix(0.8934662055683115,0.44913042594258046,-0.44913042594258046,0.8934662055683115,418.891164530201,-48.27166543136798)" filter="url(#c)"/><path d="M216.93 785.87a3.2 3.2 0 0 0 2.67 5h171.33a3.2 3.2 0 0 0 2.68-5l-85-127.5a4 4 0 0 0-6.66 0z" stroke="#fff" stroke-width="2" fill="#24346c" transform="matrix(0.8648012740956195,-0.5021142861168094,0.5021142861168094,0.8648012740956195,-321.3113903028464,250.90758605933434)" filter="url(#d)"/><path d="M385.43 736.27a3.2 3.2 0 0 0 2.67 5h171.33a3.2 3.2 0 0 0 2.68-5l-85-127.5a4 4 0 0 0-6.66 0z" stroke="#fff" stroke-width="2" fill="#54b464" transform="matrix(0.8978055335383578,0.4403921252110494,-0.4403921252110494,0.8978055335383578,344.58763445927684,-139.91567721290437)" filter="url(#e)"/><defs><path fill="#0b6cb4" d="M681 22C323 22 94-145 85-462h297c10 151 131 226 296 226 163 0 271-77 271-190 0-102-95-149-257-189l-164-41c-252-61-403-188-403-405 0-269 236-449 560-449 330 0 546 183 551 445H941c-11-119-106-188-259-188-156 0-244 72-244 172-3 156 226 185 373 221 250 61 445 186 445 436 0 271-213 446-575 446" id="f"/><path fill="#0b6cb4" d="M440-1490V0H135v-1490h305" id="g"/><path fill="#0b6cb4" d="M135 0v-1490h997v253H440v360h640v249H440v375h694V0H135" id="h"/><g id="b"><use transform="matrix(0.10416666666666667,0,0,0.10416666666666667,0,0)" xlink:href="#f"/><use transform="matrix(0.10416666666666667,0,0,0.10416666666666667,139.6875,0)" xlink:href="#g"/><use transform="matrix(0.10416666666666667,0,0,0.10416666666666667,199.58333333333334,0)" xlink:href="#h"/></g><filter id="a" filterUnits="objectBoundingBox" x="-.03" y="0" width="1.06" height="1.07"><feOffset result="offOut" in="SourceAlpha" dy="10"/><feGaussianBlur result="blurOut" in="offOut" stdDeviation="5"/><feColorMatrix result="colorOut" in="blurOut" values="0 0 0 0 1 0 0 0 0 1 0 0 0 0 1 0 0 0 1 0"/><feBlend in="SourceGraphic" in2="colorOut"/></filter><filter id="c" filterUnits="objectBoundingBox" x="-.04" y="0" width="1.09" height="1.1"><feOffset result="offOut" in="SourceAlpha" dy="10"/><feGaussianBlur result="blurOut" in="offOut" stdDeviation="5"/><feColorMatrix result="colorOut" in="blurOut" values="0 0 0 0 1 0 0 0 0 1 0 0 0 0 1 0 0 0 1 0"/><feBlend in="SourceGraphic" in2="colorOut"/></filter><filter id="d" filterUnits="objectBoundingBox" x="-.04" y="0" width="1.09" height="1.09"><feOffset result="offOut" in="SourceAlpha" dy="10"/><feGaussianBlur result="blurOut" in="offOut" stdDeviation="5"/><feColorMatrix result="colorOut" in="blurOut" values="0 0 0 0 1 0 0 0 0 1 0 0 0 0 1 0 0 0 1 0"/><feBlend in="SourceGraphic" in2="colorOut"/></filter><filter id="e" filterUnits="objectBoundingBox" x="-.04" y="0" width="1.09" height="1.1"><feOffset result="offOut" in="SourceAlpha" dy="10"/><feGaussianBlur result="blurOut" in="offOut" stdDeviation="5"/><feColorMatrix result="colorOut" in="blurOut" values="0 0 0 0 1 0 0 0 0 1 0 0 0 0 1 0 0 0 1 0"/><feBlend in="SourceGraphic" in2="colorOut"/></filter></defs></g></svg>